<svg xmlns="http://www.w3.org/2000/svg" viewBox="0 0 192 54.25"><title>logo_2</title><g id="ae6954aa-30a3-40be-9888-29e20b8e938c" data-name="Слой 2"><g id="c5546262-9bb1-4256-b0f0-9987df499273" data-name="Слой 1"><path d="M7.28,0H184.72A7.3,7.3,0,0,1,192,7.28V47a7.3,7.3,0,0,1-7.28,7.28H7.28A7.3,7.3,0,0,1,0,47V7.28A7.3,7.3,0,0,1,7.28,0Zm0,2A5.25,5.25,0,0,0,2,7.28V47A5.25,5.25,0,0,0,7.28,52.2H184.72A5.25,5.25,0,0,0,190,47V7.28A5.25,5.25,0,0,0,184.72,2Z" style="fill:#fff;fill-rule:evenodd"/><path d="M13.71,8.09h14a3.41,3.41,0,0,1,3.4,3.4V42.76a3.41,3.41,0,0,1-3.4,3.4h-14a3.41,3.41,0,0,1-3.4-3.4V11.49a3.41,3.41,0,0,1,3.4-3.4Zm7.11,32.65a2,2,0,1,0,2,2,2,2,0,0,0-2-2ZM19.17,11.4a.39.39,0,0,0-.38.38h0a.39.39,0,0,0,.38.38h3.19a.39.39,0,0,0,.38-.38h0a.39.39,0,0,0-.38-.38ZM11.9,14.32V39.93H29.5V14.32Z" style="fill:#fff;fill-rule:evenodd"/><path d="M50.9,34h2.61L47.8,17.33H45.15L39.43,34H42l1.46-4.42h6L50.9,34ZM46.35,20.35h.19l2.29,7H44l2.3-7Zm15.88.85a4.14,4.14,0,0,0-3.76,2.28h-.18V21.42H56V38.07h2.36v-6h.19a3.88,3.88,0,0,0,3.68,2.1c3,0,5-2.5,5-6.5s-1.92-6.51-5-6.51ZM61.55,32c-2,0-3.23-1.64-3.23-4.28s1.24-4.28,3.24-4.28,3.2,1.61,3.2,4.28S63.57,32,61.55,32ZM76.23,21.2a4.14,4.14,0,0,0-3.77,2.28h-.18V21.42H70V38.07h2.36v-6h.19a3.88,3.88,0,0,0,3.68,2.1c3,0,5-2.5,5-6.5s-1.92-6.51-5-6.51ZM75.56,32c-2,0-3.22-1.64-3.22-4.28s1.24-4.28,3.24-4.28,3.2,1.61,3.2,4.28S77.57,32,75.56,32Zm8.58,2H86.5V16.51H84.14V34ZM94.95,23.28c1.75,0,2.89,1.28,2.94,3.27h-6c.13-2,1.35-3.27,3.09-3.27Zm2.93,7.32A2.83,2.83,0,0,1,95,32.13c-1.89,0-3.11-1.39-3.18-3.6v-.14h8.44v-.87c0-4-2-6.34-5.34-6.34s-5.51,2.54-5.51,6.57,2.1,6.48,5.52,6.48c2.73,0,4.64-1.38,5.18-3.63Zm4.78-1.09c.18,3,2.54,4.88,6.06,4.88,3.77,0,6.12-2,6.12-5.18,0-2.51-1.34-3.89-4.6-4.69l-1.75-.45c-2.07-.51-2.9-1.19-2.9-2.38,0-1.5,1.3-2.48,3.24-2.48s3.12,1,3.35,2.49h2.4c-.14-2.81-2.49-4.78-5.72-4.78-3.47,0-5.77,2-5.77,4.94,0,2.45,1.31,3.91,4.18,4.61l2,.52c2.1.52,3,1.28,3,2.55,0,1.48-1.45,2.55-3.43,2.55s-3.6-1-3.8-2.58Zm20-6.23c1.75,0,2.89,1.28,2.94,3.27h-6c.13-2,1.35-3.27,3.09-3.27Zm2.93,7.32a2.83,2.83,0,0,1-2.84,1.52c-1.89,0-3.11-1.39-3.18-3.6v-.14H128v-.87c0-4-2-6.34-5.34-6.34s-5.51,2.54-5.51,6.57,2.1,6.48,5.52,6.48c2.73,0,4.64-1.38,5.18-3.63ZM130.87,34h2.36V26.57a2.86,2.86,0,0,1,3-3,6.32,6.32,0,0,1,1.31.15V21.32a4.22,4.22,0,0,0-1-.11,3.23,3.23,0,0,0-3.22,2.14h-.18V21.42h-2.27V34Zm7.9-12.58L143.08,34h2.54l4.3-12.58h-2.5l-3,9.93h-.18l-3-9.93ZM152.37,34h2.34V21.42h-2.34V34Zm1.17-14.78A1.52,1.52,0,1,0,152,17.7a1.49,1.49,0,0,0,1.53,1.51Zm14.78,6.32a4.79,4.79,0,0,0-5.12-4.35c-3.48,0-5.59,2.46-5.59,6.48s2.12,6.56,5.6,6.56a4.75,4.75,0,0,0,5.11-4.28H166A2.61,2.61,0,0,1,163.2,32c-2,0-3.18-1.63-3.18-4.35s1.21-4.27,3.18-4.27A2.69,2.69,0,0,1,166,25.53Zm7.61-2.25c1.75,0,2.89,1.28,2.94,3.27h-6c.13-2,1.35-3.27,3.09-3.27Zm2.93,7.32A2.83,2.83,0,0,1,176,32.13c-1.89,0-3.11-1.39-3.18-3.6v-.14h8.44v-.87c0-4-2-6.34-5.34-6.34s-5.51,2.54-5.51,6.57,2.1,6.48,5.52,6.48c2.73,0,4.64-1.38,5.18-3.63Z" style="fill:#fff;fill-rule:evenodd"/></g></g></svg>